<svg xmlns="http://www.w3.org/2000/svg" viewBox="0 0 96 72" role="img" aria-labelledby="dreamGuideMonoTitle">
  <title id="dreamGuideMonoTitle">Dream Anatomy 单色云朵梦境向导标识</title>
  <path d="M26.5 54.5C15.8 54.5 8 47.7 8 38.6c0-8.5 6.8-15 15.3-15 1.7 0 3.3.3 4.8.8C31.7 16 39.2 11.2 48 11.2c10.9 0 19.9 7.5 22.3 17.4 1.1-.3 2.3-.5 3.6-.5C81.8 28.1 88 34.3 88 42c0 7.4-6.2 12.5-14.4 12.5H26.5Z" fill="none" stroke="currentColor" stroke-width="2.15" stroke-linecap="round" stroke-linejoin="round"/>
  <path d="M34.5 38.8c2.1-1.4 4.5-1.4 6.6 0" fill="none" stroke="currentColor" stroke-width="1.95" stroke-linecap="round"/>
  <path d="M55.5 38.8c2.1-1.4 4.5-1.4 6.6 0" fill="none" stroke="currentColor" stroke-width="1.95" stroke-linecap="round"/>
  <path d="M48 43.8c2.1 1.6 4.6 1.6 6.8 0" fill="none" stroke="currentColor" stroke-width="1.45" stroke-linecap="round"/>
  <path d="M70.7 17.1l1.7 4.1 4.1 1.7-4.1 1.7-1.7 4.1-1.7-4.1-4.1-1.7 4.1-1.7 1.7-4.1Z" fill="none" stroke="currentColor" stroke-width="1" stroke-linejoin="round"/>
</svg>
