<svg xmlns="http://www.w3.org/2000/svg" viewBox="0 0 360 96" role="img" aria-labelledby="dreamAnatomyLockupTitle">
  <title id="dreamAnatomyLockupTitle">析梦 Dream Anatomy 横向品牌标识</title>
  <g transform="translate(8 12)">
    <path d="M26.5 54.5C15.8 54.5 8 47.7 8 38.6c0-8.5 6.8-15 15.3-15 1.7 0 3.3.3 4.8.8C31.7 16 39.2 11.2 48 11.2c10.9 0 19.9 7.5 22.3 17.4 1.1-.3 2.3-.5 3.6-.5C81.8 28.1 88 34.3 88 42c0 7.4-6.2 12.5-14.4 12.5H26.5Z" fill="#fff8eb"/>
    <path d="M26.5 54.5C15.8 54.5 8 47.7 8 38.6c0-8.5 6.8-15 15.3-15 1.7 0 3.3.3 4.8.8C31.7 16 39.2 11.2 48 11.2c10.9 0 19.9 7.5 22.3 17.4 1.1-.3 2.3-.5 3.6-.5C81.8 28.1 88 34.3 88 42c0 7.4-6.2 12.5-14.4 12.5H26.5Z" fill="none" stroke="#5f6549" stroke-width="2.6" stroke-linecap="round" stroke-linejoin="round"/>
    <path d="M34.5 38.8c2.1-1.4 4.5-1.4 6.6 0" fill="none" stroke="#302a23" stroke-width="2.4" stroke-linecap="round"/>
    <path d="M55.5 38.8c2.1-1.4 4.5-1.4 6.6 0" fill="none" stroke="#302a23" stroke-width="2.4" stroke-linecap="round"/>
    <path d="M48 43.8c2.1 1.6 4.6 1.6 6.8 0" fill="none" stroke="#8a6f52" stroke-width="1.8" stroke-linecap="round"/>
    <path d="M70.7 17.1l1.7 4.1 4.1 1.7-4.1 1.7-1.7 4.1-1.7-4.1-4.1-1.7 4.1-1.7 1.7-4.1Z" fill="#9fa58b" stroke="#5f6549" stroke-width="1.2" stroke-linejoin="round"/>
  </g>
  <text x="118" y="44" fill="#302a23" font-family="Songti SC, Noto Serif CJK SC, Georgia, serif" font-size="28" font-weight="700">析梦</text>
  <text x="118" y="68" fill="#6d6358" font-family="PingFang SC, Microsoft YaHei, Arial, sans-serif" font-size="18">Dream Anatomy</text>
</svg>
